<svg width="150" height="150" viewBox="0 0 150 150" fill="none" xmlns="http://www.w3.org/2000/svg">
<path d="M36.5625 106.875C41.875 102.813 47.8125 99.6094 54.375 97.2656C60.9375 94.9219 67.8125 93.75 75 93.75C82.1875 93.75 89.0625 94.9219 95.625 97.2656C102.188 99.6094 108.125 102.813 113.437 106.875C117.083 102.604 119.922 97.7604 121.953 92.3438C123.984 86.9271 125 81.1458 125 75C125 61.1458 120.13 49.349 110.391 39.6094C100.651 29.8698 88.8542 25 75 25C61.1458 25 49.349 29.8698 39.6094 39.6094C29.8698 49.349 25 61.1458 25 75C25 81.1458 26.0156 86.9271 28.0469 92.3438C30.0781 97.7604 32.9167 102.604 36.5625 106.875ZM75 81.25C68.8542 81.25 63.6719 79.1406 59.4531 74.9219C55.2344 70.7031 53.125 65.5208 53.125 59.375C53.125 53.2292 55.2344 48.0469 59.4531 43.8281C63.6719 39.6094 68.8542 37.5 75 37.5C81.1458 37.5 86.3281 39.6094 90.5469 43.8281C94.7656 48.0469 96.875 53.2292 96.875 59.375C96.875 65.5208 94.7656 70.7031 90.5469 74.9219C86.3281 79.1406 81.1458 81.25 75 81.25ZM75 137.5C66.3542 137.5 58.2292 135.859 50.625 132.578C43.0208 129.297 36.4062 124.844 30.7812 119.219C25.1562 113.594 20.7031 106.979 17.4219 99.375C14.1406 91.7708 12.5 83.6458 12.5 75C12.5 66.3542 14.1406 58.2292 17.4219 50.625C20.7031 43.0208 25.1562 36.4062 30.7812 30.7812C36.4062 25.1562 43.0208 20.7031 50.625 17.4219C58.2292 14.1406 66.3542 12.5 75 12.5C83.6458 12.5 91.7708 14.1406 99.375 17.4219C106.979 20.7031 113.594 25.1562 119.219 30.7812C124.844 36.4062 129.297 43.0208 132.578 50.625C135.859 58.2292 137.5 66.3542 137.5 75C137.5 83.6458 135.859 91.7708 132.578 99.375C129.297 106.979 124.844 113.594 119.219 119.219C113.594 124.844 106.979 129.297 99.375 132.578C91.7708 135.859 83.6458 137.5 75 137.5Z" fill="#1D1B20"/>
</svg>
